<svg width="14" height="16" viewBox="0 0 14 16" fill="none" xmlns="http://www.w3.org/2000/svg">
<path d="M9.7457 0.727273C9.7457 0.325611 9.42008 0 9.01842 0H1.53517C0.782538 0 0.166748 0.654545 0.166748 1.45455V10.9522C0.166748 11.33 0.47308 11.6364 0.850959 11.6364V11.6364C1.22884 11.6364 1.53517 11.33 1.53517 10.9522V3.45454C1.53517 2.34998 2.4306 1.45455 3.53517 1.45455H9.01842C9.42009 1.45455 9.7457 1.12893 9.7457 0.727273V0.727273ZM11.7983 2.90909H4.27201C3.51938 2.90909 2.90359 3.56364 2.90359 4.36364V14.5455C2.90359 15.3455 3.51938 16 4.27201 16H11.7983C12.551 16 13.1667 15.3455 13.1667 14.5455V4.36364C13.1667 3.56364 12.551 2.90909 11.7983 2.90909ZM11.7983 12.5455C11.7983 13.65 10.9029 14.5455 9.79833 14.5455H6.27201C5.16744 14.5455 4.27201 13.65 4.27201 12.5455V6.36364C4.27201 5.25907 5.16744 4.36364 6.27201 4.36364H9.79833C10.9029 4.36364 11.7983 5.25907 11.7983 6.36364V12.5455Z" fill="#7A787A"/>
</svg>
