<svg width="24" height="24" viewBox="0 0 24 24" fill="none" xmlns="http://www.w3.org/2000/svg">
<g clip-path="url(#clip0_175_38)">
<path fill-rule="evenodd" clip-rule="evenodd" d="M14.2652 7.51651C14.4501 7.51651 14.6 7.66641 14.6 7.85131V7.85131C14.6 8.11386 14.8905 8.27689 15.1268 8.16241C15.9151 7.78047 16.8453 7.56458 18.133 7.56458C23.2937 7.56458 23.9543 11.4219 23.9543 14.7823V21.965C23.9543 23.0627 23.0696 23.9552 21.972 23.9649L20.005 23.9822C18.8936 23.992 17.9874 23.0938 17.9874 21.9823V15.2342C17.9874 13.7628 17.4604 13.4835 16.4859 13.4835C15.5595 13.4835 14.9844 13.7763 14.9844 15.2342V21.9825C14.9844 23.0939 14.0783 23.9921 12.967 23.9825L10.922 23.9647C9.82421 23.9551 8.93934 23.0625 8.93934 21.9648V9.5165C8.93934 8.41193 9.83477 7.5165 10.9393 7.5165L14.2652 7.51651ZM4.00599 7.50662C5.11057 7.50661 6.006 8.40205 6.006 9.50662V21.9931C6.006 23.0977 5.11057 23.9931 4.006 23.9931H2C0.895431 23.9931 0 23.0977 0 21.9931V9.50662C0 8.40205 0.895428 7.50662 2 7.50662L4.00599 7.50662ZM4.5045 10.5096C4.5045 9.68036 3.83225 9.00811 3.003 9.00811V9.00811C2.17374 9.00811 1.5015 9.68036 1.5015 10.5096V20.9901C1.5015 21.8193 2.17374 22.4916 3.003 22.4916V22.4916C3.83225 22.4916 4.5045 21.8193 4.5045 20.9901V10.5096ZM13.0985 9.74924C13.0985 9.3454 12.7711 9.01801 12.3673 9.01801H11.7697C11.0358 9.01801 10.4408 9.61295 10.4408 10.3468V20.9519C10.4408 21.7867 11.1136 22.4654 11.9484 22.4729V22.4729C12.7936 22.4804 13.4829 21.7972 13.4829 20.9519V15.2342C13.4829 12.4039 15.3643 11.982 16.4859 11.982C17.8553 11.982 19.4889 12.5466 19.4889 15.2342V20.9909C19.4889 21.8147 20.1607 22.4804 20.9844 22.4729V22.4729C21.7975 22.4654 22.4528 21.8041 22.4528 20.9909V14.7823C22.4528 10.6156 21.2832 9.06606 18.133 9.06606C16.2396 9.06606 15.4198 9.62763 14.6165 10.3033V10.3033C14.4818 10.4177 14.3108 10.4805 14.1341 10.4805H13.8297C13.4259 10.4805 13.0985 10.1531 13.0985 9.74924V9.74924ZM3.003 0C4.65916 0 6.006 1.34685 6.006 3.003C6.006 4.65916 4.65916 6.006 3.003 6.006C1.34685 6.006 0 4.65916 0 3.003C0 1.34685 1.34685 0 3.003 0ZM3.003 1.5015C2.17567 1.5015 1.5015 2.17568 1.5015 3.003C1.5015 3.83033 2.17567 4.5045 3.003 4.5045C3.83032 4.5045 4.5045 3.83033 4.5045 3.003C4.5045 2.17568 3.83032 1.5015 3.003 1.5015Z" fill="#7A787A"/>
</g>
<defs>
<clipPath id="clip0_175_38">
<rect width="24" height="24" fill="white"/>
</clipPath>
</defs>
</svg>
