<svg width="18" height="18" viewBox="0 0 18 18" fill="none" xmlns="http://www.w3.org/2000/svg">
<path d="M9 15.4501V10.5526M9 15.4501C9 16.3061 8.25381 17 7.33333 17H1L1 9.00263L7.33333 9.00263C8.25381 9.00263 9 9.69655 9 10.5526M9 15.4501C9 16.3061 9.74619 17 10.6667 17H15.3333C16.2538 17 17 16.3061 17 15.4501V10.5526C17 9.69655 16.2538 9.00263 15.3333 9.00263H10.6667C9.74619 9.00263 9 9.69655 9 10.5526M1 8.99737L1 1L9 1V7.44744C9 8.30344 8.25381 8.99737 7.33333 8.99737L1 8.99737Z" stroke="white"/>
</svg>
