<svg width="20" height="22" viewBox="0 0 20 22" fill="none" xmlns="http://www.w3.org/2000/svg">
  <path
    d="M14.0698 22H5.88372C2.14884 22 0 19.8512 0 16.1163V5.88372C0 2.14884 2.14884 0 5.88372 0H14.0698C17.8046 0 19.9535 2.14884 19.9535 5.88372V16.1163C19.9535 19.8512 17.8046 22 14.0698 22ZM5.88372 1.53488C2.95721 1.53488 1.53488 2.95721 1.53488 5.88372V16.1163C1.53488 19.0428 2.95721 20.4651 5.88372 20.4651H14.0698C16.9963 20.4651 18.4186 19.0428 18.4186 16.1163V5.88372C18.4186 2.95721 16.9963 1.53488 14.0698 1.53488H5.88372Z"
    fill="#7A787A" />
  <path
    d="M16.6278 8.18601H14.5813C13.0259 8.18601 11.7673 6.92741 11.7673 5.37206V3.32555C11.7673 2.90601 12.1152 2.55811 12.5348 2.55811C12.9543 2.55811 13.3022 2.90601 13.3022 3.32555V5.37206C13.3022 6.07811 13.8752 6.65113 14.5813 6.65113H16.6278C17.0473 6.65113 17.3952 6.99904 17.3952 7.41857C17.3952 7.83811 17.0473 8.18601 16.6278 8.18601Z"
    fill="#7A787A" />
  <path
    d="M9.97668 12.7907H5.88365C5.46412 12.7907 5.11621 12.4428 5.11621 12.0232C5.11621 11.6037 5.46412 11.2558 5.88365 11.2558H9.97668C10.3962 11.2558 10.7441 11.6037 10.7441 12.0232C10.7441 12.4428 10.3962 12.7907 9.97668 12.7907Z"
    fill="#7A787A" />
  <path
    d="M14.0697 16.8838H5.88365C5.46412 16.8838 5.11621 16.5359 5.11621 16.1163C5.11621 15.6968 5.46412 15.3489 5.88365 15.3489H14.0697C14.4892 15.3489 14.8371 15.6968 14.8371 16.1163C14.8371 16.5359 14.4892 16.8838 14.0697 16.8838Z"
    fill="#7A787A" />
</svg>
