<svg width="16" height="16" viewBox="0 0 16 16" fill="none" xmlns="http://www.w3.org/2000/svg">
<path fill-rule="evenodd" clip-rule="evenodd" d="M2.84187 0C2.37569 0 1.94951 0.263385 1.74103 0.680357L0.0649724 4.03248C0.0222401 4.11793 0 4.21216 0 4.30769V14.7692C0 15.449 0.55104 16 1.23077 16H14.7692C15.449 16 16 15.449 16 14.7692V4.30769C16 4.21216 15.9777 4.11793 15.935 4.03248L14.259 0.680382C14.0505 0.263422 13.6244 3.69732e-05 13.1582 3.69732e-05L8 1.23244e-05L2.84187 0ZM2.84187 1.23077L7.38462 1.23078V3.69231H1.6111L2.84187 1.23077ZM8.61539 3.69231V1.23079L13.1582 1.23081L14.3889 3.69231H8.61539ZM8 4.92308H14.7692V14.7692H1.23077V4.92308H8ZM5.53846 7.38462C5.1986 7.38462 4.92308 7.66014 4.92308 8C4.92308 8.33986 5.1986 8.61539 5.53846 8.61539H10.4615C10.8014 8.61539 11.0769 8.33986 11.0769 8C11.0769 7.66014 10.8014 7.38462 10.4615 7.38462H5.53846Z" fill="#CCCCCC"/>
</svg>
